<svg xmlns="http://www.w3.org/2000/svg" viewBox="0 0 1920 1080"><defs><style>.cls-1{fill:#a5dd92;}.cls-2,.cls-3,.cls-4,.cls-7{fill:none;}.cls-3,.cls-4,.cls-5,.cls-6,.cls-7,.cls-9{stroke:#000;}.cls-3{stroke-linecap:round;stroke-linejoin:round;}.cls-3,.cls-4,.cls-5,.cls-6{stroke-width:10px;}.cls-4,.cls-5,.cls-6,.cls-7,.cls-8,.cls-9{stroke-miterlimit:10;}.cls-6,.cls-8{fill:#90bafc;}.cls-7{stroke-width:9px;}.cls-8{stroke:#90bafc;}.cls-9{font-size:101px;stroke-width:2px;font-family:NirmalaUI, Nirmala UI;}</style></defs><g id="Layer_2" data-name="Layer 2"><rect class="cls-1" x="377" y="150" width="253" height="253" rx="53.89"/><rect class="cls-1" x="691.5" y="150" width="253" height="253" rx="53.89"/><rect class="cls-1" x="1006" y="150" width="253" height="253" rx="53.89"/><rect class="cls-1" x="691" y="457" width="253" height="253" rx="53.89"/><rect class="cls-1" x="377" y="457" width="253" height="253" rx="53.89"/><rect class="cls-1" x="1006" y="457" width="253" height="253" rx="53.89"/><rect class="cls-1" x="1320" y="449" width="253" height="253" rx="53.89"/></g><g id="Layer_1" data-name="Layer 1"><rect class="cls-2" x="404" y="179" width="200" height="200"/><path class="cls-3" d="M574.59,238.87a56.12,56.12,0,0,1,.09,79.36l-.09.09"/><path class="cls-3" d="M465.63,310.47h-37.2a6.25,6.25,0,0,1-6.25-6.25V253.78a6.25,6.25,0,0,1,6.25-6.25h37.2l55.85-44.05v151Z"/><line class="cls-3" x1="465.54" y1="247.53" x2="465.54" y2="310.47"/><path class="cls-3" d="M552.5,261a25.2,25.2,0,0,1,.07,35.46l-.07.07"/><rect class="cls-2" x="731" y="192" width="174" height="174"/><path class="cls-4" d="M875.9,252.82c-2,2-26.5-.23-29.07-2.79s-4.81-26.34-2.25-28.9L867.76,198s2.45-2.75-1.09-2.76c-11.4,0-34.59.22-45.82,11.46l-2.32,2.3a36.69,36.69,0,0,0,.15,52.17l17.42,17.42a36.37,36.37,0,0,0,52,.15l2.31-2.31c10.88-10.87,11.22-33.87,11.26-45.48,0-3.7-2.68-1.31-2.68-1.31Z"/><path class="cls-4" d="M815.61,256.32l-74.13,67.82c-5.22,5.23-12.1,19.43,0,31.53s26.3,5.22,31.51,0c0,0,65.51-74.35,67.27-73.51"/><circle class="cls-5" cx="758.11" cy="337.63" r="5.67"/><path class="cls-6" d="M1185.39,301a42.83,42.83,0,0,1-3.91,22.44,54,54,0,0,1-48.61,31c-19.91,0-39.28-13.29-48.47-30.88-11.13-21.31.58-42.67,11.31-61.25L1132,199.5a1,1,0,0,1,1.73,0l36.3,62.87C1177.13,274.66,1184.14,287.5,1185.39,301Z"/><path class="cls-4" d="M837.25,588v3.84a3,3,0,0,1-3,3h-8.88v55.69a3,3,0,0,1-3,3h-9.75a3,3,0,0,1-3-3V594.88h-8.49a3,3,0,0,1-3-3V588a3,3,0,0,1,3-3h33.12A3,3,0,0,1,837.25,588Z"/><path d="M796.18,568.82l-9.62-8.34a4.8,4.8,0,0,0-3.19-1.32,4.5,4.5,0,0,0-3.18,7.69l9.63,8.33A4.78,4.78,0,0,0,793,576.5a4.51,4.51,0,0,0,4.5-4.5,4.44,4.44,0,0,0-1.32-3.18Z"/><path d="M767.2,552.61l-12.82-2.47a4.84,4.84,0,0,0-3.46.45,4.57,4.57,0,0,0-2.07,2.69c-.51,2.22.67,5.06,3.14,5.54l12.81,2.47a4.86,4.86,0,0,0,3.47-.45,4.65,4.65,0,0,0,2.07-2.69c.51-2.22-.67-5.06-3.14-5.54Z"/><path d="M733.78,550.61l-12,2.15a4.57,4.57,0,0,0-2.69,2.07,4.62,4.62,0,0,0-.45,3.47,4.55,4.55,0,0,0,2.07,2.69,5.07,5.07,0,0,0,3.47.45l12-2.15a4.51,4.51,0,0,0,2.69-2.07,4.48,4.48,0,0,0-1.61-6.15,5.08,5.08,0,0,0-3.47-.46Z"/><ellipse class="cls-7" cx="745.12" cy="642.81" rx="10.21" ry="16.3" transform="translate(-156.22 1037.78) rotate(-64.45)"/><ellipse class="cls-7" cx="776.93" cy="641.29" rx="16.3" ry="10.21" transform="translate(-218.75 488.04) rotate(-30.79)"/><ellipse class="cls-7" cx="759.94" cy="623.56" rx="10.21" ry="16.3" transform="translate(-16.63 20.84) rotate(-1.55)"/><ellipse class="cls-7" cx="859.36" cy="641.13" rx="10.21" ry="16.3" transform="translate(-89.74 1139.89) rotate(-64.45)"/><ellipse class="cls-7" cx="891.17" cy="639.6" rx="16.3" ry="10.21" transform="translate(-201.79 546.28) rotate(-30.79)"/><ellipse class="cls-7" cx="874.18" cy="621.88" rx="10.21" ry="16.3" transform="translate(-16.54 23.93) rotate(-1.55)"/><path d="M815.07,565.22q-1.58-6.16-3.14-12.34a4.5,4.5,0,1,0-8.68,2.4q1.56,6.16,3.14,12.33a4.54,4.54,0,0,0,5.53,3.15,4.6,4.6,0,0,0,3.15-5.54Z"/><path d="M800.34,535.47q-4.56-4.68-9.11-9.35a4.49,4.49,0,0,0-6.36,0,4.51,4.51,0,0,0-1.32,3.18,4.8,4.8,0,0,0,1.32,3.18l9.1,9.35a4.64,4.64,0,0,0,3.19,1.32,4.51,4.51,0,0,0,4.5-4.5,4.76,4.76,0,0,0-1.32-3.18Z"/><path d="M775.1,515.4,764,510.33a4.84,4.84,0,0,0-3.46-.46,4.52,4.52,0,0,0-3.15,5.54,4.42,4.42,0,0,0,2.07,2.69l11.06,5.07a4.87,4.87,0,0,0,3.47.46,4.65,4.65,0,0,0,2.69-2.07,4.53,4.53,0,0,0,.45-3.47,4.39,4.39,0,0,0-2.07-2.69Z"/><path d="M844.91,575.18l9.62-8.33a4.51,4.51,0,0,0-3.18-7.69,5,5,0,0,0-3.18,1.32l-9.62,8.34a4.51,4.51,0,0,0-1.32,3.18,4.57,4.57,0,0,0,1.32,3.18,4.51,4.51,0,0,0,3.18,1.32,5,5,0,0,0,3.18-1.32Z"/><path d="M869.92,561.29l12.82-2.47a4.5,4.5,0,1,0-2.4-8.68l-12.81,2.47a4.58,4.58,0,0,0-2.69,2.07,4.5,4.5,0,0,0,5.08,6.61Z"/><path d="M898.55,559.29l12,2.15A4.86,4.86,0,0,0,914,561a4.65,4.65,0,0,0,2.07-2.69,4.57,4.57,0,0,0-.46-3.47,4.44,4.44,0,0,0-2.69-2.07l-12-2.15a4.82,4.82,0,0,0-3.47.46,4.48,4.48,0,0,0-1.61,6.15,4.37,4.37,0,0,0,2.68,2.07Z"/><path d="M828.34,567.61q1.57-6.17,3.14-12.33a4.5,4.5,0,0,0-8.68-2.4q-1.57,6.18-3.14,12.34a4.5,4.5,0,1,0,8.68,2.39Z"/><path d="M840.75,541.83l9.11-9.35a4.65,4.65,0,0,0,1.31-3.18,4.59,4.59,0,0,0-1.31-3.18,4.51,4.51,0,0,0-3.19-1.32,4.64,4.64,0,0,0-3.18,1.32l-9.1,9.35a4.66,4.66,0,0,0-1.32,3.18,4.51,4.51,0,0,0,4.5,4.5,4.64,4.64,0,0,0,3.18-1.32Z"/><path d="M864.17,523.17l11.06-5.07a4.51,4.51,0,0,0-1.08-8.23l-1.2-.16a4.55,4.55,0,0,0-2.27.62l-11.06,5.07a4.51,4.51,0,0,0,1.08,8.23l1.19.16a4.56,4.56,0,0,0,2.28-.62Z"/><path class="cls-4" d="M1087,496V596.41l16.21,28.38a2.31,2.31,0,0,0,4.08-.15l13.44-28.23V496"/><path class="cls-4" d="M1143.68,496V596.41l16.22,28.38a2.3,2.3,0,0,0,4.07-.15l13.44-28.23V496"/><rect class="cls-4" x="1054" y="641.64" width="157.9" height="28.36" rx="3"/><path class="cls-8" d="M573.35,559.63v96.06A6.3,6.3,0,0,1,567,662h-120a6.3,6.3,0,0,1-6.31-6.31v-86.9a58.71,58.71,0,0,1,25.91-2.62c7.69,1,10,3.08,26.74,6.69,19.66,4.24,29.5,6.36,39,5.57C550.64,576.9,557.16,567.61,573.35,559.63Z"/><path class="cls-4" d="M573.35,535.7v120a6.3,6.3,0,0,1-6.3,6.3h-120a6.3,6.3,0,0,1-6.3-6.3v-120a6.3,6.3,0,0,1,6.3-6.3h22.11V512.3a6.31,6.31,0,0,1,6.31-6.3h63.16a6.31,6.31,0,0,1,6.31,6.3v17.1h22.11A6.3,6.3,0,0,1,573.35,535.7Z"/><text class="cls-9" transform="translate(1347.43 613.89)">अ</text><text class="cls-9" transform="translate(1435.24 613.89)">/A</text></g></svg>