<svg id="Layer_1" data-name="Layer 1" xmlns="http://www.w3.org/2000/svg" viewBox="0 0 253 253"><defs><style>.cls-1{fill:#a5dd92;opacity:0;}.cls-2{fill:#90bafc;stroke:#90bafc;}.cls-2,.cls-3{stroke-miterlimit:10;}.cls-3{fill:none;stroke:#000;stroke-width:10px;}</style></defs><rect class="cls-1" width="253" height="253" rx="53.89"/><path class="cls-2" d="M197.62,104.25v96.07a6.3,6.3,0,0,1-6.31,6.3h-120a6.3,6.3,0,0,1-6.3-6.3V113.41a58.67,58.67,0,0,1,25.9-2.62c7.69,1,10,3.08,26.75,6.69,19.65,4.25,29.49,6.36,39,5.57C174.91,121.52,181.43,112.23,197.62,104.25Z" transform="translate(-1.27 -1.62)"/><path class="cls-3" d="M197.62,80.33v120a6.31,6.31,0,0,1-6.31,6.3h-120a6.3,6.3,0,0,1-6.3-6.3v-120A6.31,6.31,0,0,1,71.32,74H93.43V56.93a6.31,6.31,0,0,1,6.31-6.31H162.9a6.31,6.31,0,0,1,6.3,6.31V74h22.11A6.32,6.32,0,0,1,197.62,80.33Z" transform="translate(-1.27 -1.62)"/></svg>