<svg id="Layer_1" data-name="Layer 1" xmlns="http://www.w3.org/2000/svg" viewBox="0 0 256 256"><defs><style>.cls-1{fill:#a5dd92;opacity:0;}.cls-2,.cls-3{fill:none;stroke:#000000;stroke-miterlimit:10;}.cls-2{stroke-width:10px;}.cls-3{stroke-width:9px;}</style></defs><rect class="cls-1" x="1.27" y="1.62" width="253" height="253" rx="53.89"/><path class="cls-2" d="M147.52,132.66v3.84a3,3,0,0,1-3,3h-8.88v55.69a3,3,0,0,1-3,3h-9.75a3,3,0,0,1-3-3V139.5H111.4a3,3,0,0,1-3-3v-3.84a3,3,0,0,1,3-3h33.12A3,3,0,0,1,147.52,132.66Z"/><path d="M106.45,113.44l-9.63-8.33a4.73,4.73,0,0,0-3.18-1.32,4.57,4.57,0,0,0-3.18,1.32,4.51,4.51,0,0,0-1.32,3.18,4.45,4.45,0,0,0,1.32,3.18l9.62,8.33a4.77,4.77,0,0,0,3.19,1.32,4.57,4.57,0,0,0,3.18-1.32,4.51,4.51,0,0,0,1.32-3.18,4.45,4.45,0,0,0-1.32-3.18Z"/><path d="M77.46,97.24,64.65,94.76a4.87,4.87,0,0,0-3.47.45,4.59,4.59,0,0,0-2.06,2.69c-.51,2.23.67,5.06,3.14,5.54l12.81,2.47a4.77,4.77,0,0,0,3.47-.45,4.62,4.62,0,0,0,2.07-2.69c.5-2.22-.68-5.06-3.15-5.53Z"/><path d="M44.05,95.23l-12,2.16a4.49,4.49,0,0,0-2.69,2.06,4.62,4.62,0,0,0-.45,3.47A4.51,4.51,0,0,0,31,105.61a5,5,0,0,0,3.46.45l12-2.15a4.56,4.56,0,0,0,2.69-2.06,4.62,4.62,0,0,0,.45-3.47,4.51,4.51,0,0,0-2.07-2.69,5,5,0,0,0-3.46-.46Z"/><ellipse class="cls-3" cx="55.39" cy="187.43" rx="10.21" ry="16.3" transform="translate(-137.6 156.56) rotate(-64.45)"/><ellipse class="cls-3" cx="87.2" cy="185.91" rx="16.3" ry="10.21" transform="matrix(0.86, -0.51, 0.51, 0.86, -82.87, 70.83)"/><ellipse class="cls-3" cx="70.21" cy="168.19" rx="10.21" ry="16.3" transform="translate(-4.53 1.97) rotate(-1.55)"/><ellipse class="cls-3" cx="169.63" cy="185.75" rx="10.21" ry="16.3" transform="translate(-71.12 258.67) rotate(-64.45)"/><ellipse class="cls-3" cx="201.44" cy="184.23" rx="16.3" ry="10.21" transform="translate(-65.91 129.07) rotate(-30.79)"/><ellipse class="cls-3" cx="184.45" cy="166.51" rx="10.21" ry="16.3" transform="translate(-4.45 5.06) rotate(-1.55)"/><path d="M125.33,109.84q-1.56-6.16-3.14-12.33a4.54,4.54,0,0,0-5.53-3.15,4.6,4.6,0,0,0-3.15,5.54l3.15,12.34a4.5,4.5,0,1,0,8.67-2.4Z"/><path d="M110.61,80.09l-9.11-9.35a4.49,4.49,0,0,0-6.36,0,4.53,4.53,0,0,0-1.32,3.18,4.68,4.68,0,0,0,1.32,3.18l9.1,9.35a4.64,4.64,0,0,0,3.18,1.32,4.58,4.58,0,0,0,3.19-1.32,4.52,4.52,0,0,0,1.31-3.18,4.72,4.72,0,0,0-1.31-3.18Z"/><path d="M85.37,60,74.31,55a4.87,4.87,0,0,0-3.47-.45A4.48,4.48,0,0,0,67.7,60a4.39,4.39,0,0,0,2.07,2.69L80.83,67.8a4.92,4.92,0,0,0,3.47.45A4.65,4.65,0,0,0,87,66.18a4.57,4.57,0,0,0,.45-3.47A4.39,4.39,0,0,0,85.37,60Z"/><path d="M155.18,119.8l9.62-8.33a4.5,4.5,0,0,0-3.18-7.68,4.94,4.94,0,0,0-3.18,1.32l-9.63,8.33a4.49,4.49,0,0,0,0,6.36,4.51,4.51,0,0,0,3.18,1.32,5,5,0,0,0,3.19-1.32Z"/><path d="M180.19,105.91,193,103.44a4.52,4.52,0,0,0,3.15-5.54,4.63,4.63,0,0,0-5.54-3.14L177.8,97.24a4.52,4.52,0,0,0-2.69,2.06,4.5,4.5,0,0,0,5.08,6.61Z"/><path d="M208.82,103.91l12,2.15a4.87,4.87,0,0,0,3.47-.45,4.59,4.59,0,0,0,2.06-2.69,4.53,4.53,0,0,0-.45-3.47,4.38,4.38,0,0,0-2.69-2.06l-12-2.16a4.85,4.85,0,0,0-3.46.46,4.51,4.51,0,0,0-2.07,2.69,4.57,4.57,0,0,0,.45,3.47,4.38,4.38,0,0,0,2.69,2.06Z"/><path d="M138.61,112.24q1.56-6.18,3.14-12.34a4.5,4.5,0,1,0-8.68-2.39q-1.57,6.17-3.14,12.33a4.5,4.5,0,1,0,8.68,2.4Z"/><path d="M151,86.45l9.1-9.35a4.49,4.49,0,0,0,0-6.36,4.51,4.51,0,0,0-3.18-1.32,4.64,4.64,0,0,0-3.18,1.32l-9.1,9.35a4.49,4.49,0,0,0,0,6.36,4.51,4.51,0,0,0,3.18,1.32A4.64,4.64,0,0,0,151,86.45Z"/><path d="M174.43,67.8l11.06-5.08A4.48,4.48,0,0,0,187.56,60a4.62,4.62,0,0,0-.45-3.47,4.52,4.52,0,0,0-2.69-2.06l-1.2-.16A4.42,4.42,0,0,0,181,55L169.89,60a4.54,4.54,0,0,0-2.07,2.69,4.62,4.62,0,0,0,.46,3.47A4.54,4.54,0,0,0,171,68.25l1.19.16a4.52,4.52,0,0,0,2.27-.61Z"/></svg>