<svg id="Layer_1" data-name="Layer 1" xmlns="http://www.w3.org/2000/svg" viewBox="0 0 256 256"><defs><style>.cls-1{fill:#a5dd92;opacity:0;}.cls-2,.cls-3{fill:none;}.cls-3,.cls-4{stroke:#000;stroke-miterlimit:10;stroke-width:10px;}</style></defs><rect class="cls-1" x="1.27" y="1.62" width="10vw" height="0vw" rx="53.89"/><rect class="cls-2" x="40.77" y="43.62" width="174" height="174"/><path class="cls-3" d="M185.66,104.44c-2,2-26.49-.23-29.06-2.79s-4.81-26.34-2.26-28.9l23.19-23.18s2.45-2.75-1.09-2.76c-11.41,0-34.6.22-45.83,11.46l-2.31,2.3a36.7,36.7,0,0,0,.14,52.17l17.43,17.42a36.37,36.37,0,0,0,52,.15l2.3-2.3c10.89-10.88,11.22-33.88,11.27-45.49,0-3.7-2.68-1.31-2.68-1.31Z"/><path class="cls-3" d="M125.38,107.94,51.24,175.77c-5.21,5.22-12.09,19.42,0,31.52s26.3,5.22,31.52,0c0,0,65.51-74.35,67.27-73.51"/><circle class="cls-4" cx="67.88" cy="189.25" r="5.67"/></svg>