<?xml version="1.0" standalone="no"?>
<!DOCTYPE svg PUBLIC "-//W3C//DTD SVG 20010904//EN"
 "http://www.w3.org/TR/2001/REC-SVG-20010904/DTD/svg10.dtd">
<svg version="1.0" xmlns="http://www.w3.org/2000/svg"
 width="200.000000pt" height="200.000000pt" viewBox="0 0 200.000000 200.000000"
 preserveAspectRatio="xMidYMid meet">
<metadata>
Created by potrace 1.16, written by Peter Selinger 2001-2019
</metadata>
<g transform="translate(0.000000,200.000000) scale(0.100000,-0.100000)"
fill="rgb(70,170,225)" stroke="none">
<path d="M896 1882 c-5 -13 -24 -20 -77 -29 -73 -11 -89 -22 -89 -59 0 -18 -8
-22 -52 -27 -146 -18 -308 -80 -368 -142 l-35 -36 -4 -116 c-3 -97 -6 -118
-22 -134 -24 -24 -24 -46 1 -61 16 -10 20 -24 20 -69 0 -36 -5 -61 -14 -68
-23 -19 -25 -49 -5 -75 24 -31 27 -127 4 -146 -19 -16 -19 -54 0 -70 19 -16
19 -89 0 -114 -19 -25 -19 -55 0 -80 20 -26 20 -110 0 -126 -19 -16 -19 -69
-1 -95 8 -12 15 -55 17 -107 5 -102 15 -117 98 -149 243 -91 881 -104 1191
-24 77 20 155 58 164 80 3 9 6 53 6 98 1 56 5 88 15 101 19 26 19 80 0 96 -20
16 -19 98 0 124 19 25 19 57 0 82 -19 25 -19 98 0 114 19 16 19 54 0 70 -10 8
-15 31 -15 70 0 39 5 62 15 70 8 7 15 25 15 40 0 15 -7 33 -15 40 -23 19 -20
104 6 139 17 23 19 32 10 50 -7 11 -16 21 -21 21 -6 0 -10 47 -10 113 0 93 -3
117 -20 144 -38 62 -200 132 -362 156 -68 10 -78 14 -78 32 0 11 -4 25 -8 32
-9 14 -83 32 -133 33 -28 0 -38 5 -42 20 -5 18 -14 20 -95 20 -78 0 -91 -2
-96 -18z m173 -49 c9 -15 12 -16 20 -4 7 11 23 13 72 7 73 -7 95 -21 53 -33
-37 -10 -390 -10 -427 0 -41 11 -25 25 39 33 43 5 58 3 65 -7 6 -10 11 -11 17
-3 9 15 36 21 99 23 40 1 54 -3 62 -16z m-69 -48 c91 0 184 3 208 8 34 6 42 4
42 -8 0 -34 -40 -40 -250 -40 -210 0 -250 6 -250 40 0 12 8 14 43 8 23 -5 116
-8 207 -8z m0 -50 c123 0 207 4 226 12 25 9 50 8 115 -3 183 -31 324 -92 359
-157 14 -26 14 -29 -3 -42 -88 -65 -978 -82 -1314 -24 -34 6 -69 16 -77 22
-26 20 8 73 68 108 103 59 342 116 401 95 18 -7 109 -11 225 -11z m733 -408
l22 -17 -22 -19 c-20 -17 -23 -29 -23 -89 0 -53 4 -71 15 -76 8 -3 15 -14 15
-24 0 -11 -7 -25 -15 -32 -11 -9 -15 -32 -15 -80 0 -48 4 -71 15 -80 8 -7 15
-21 15 -32 0 -10 -7 -21 -15 -24 -11 -4 -15 -21 -15 -59 0 -34 5 -57 15 -65
19 -16 19 -41 0 -66 -19 -25 -19 -114 0 -140 19 -25 19 -68 0 -84 -11 -9 -15
-35 -15 -105 l0 -93 -32 -20 c-244 -147 -1296 -126 -1378 27 -5 11 -10 55 -10
99 0 59 -4 83 -15 92 -19 16 -19 64 0 84 20 19 20 114 0 140 -19 25 -19 50 0
66 21 17 21 116 0 124 -8 3 -15 17 -15 31 0 14 7 28 15 31 21 9 21 136 0 154
-19 16 -19 49 0 56 11 5 15 23 15 76 0 60 -3 73 -22 89 l-23 20 23 15 c20 15
22 24 22 111 0 94 0 95 23 89 142 -40 592 -63 924 -47 234 11 418 32 451 50
15 9 17 0 20 -87 2 -86 5 -99 25 -115z"/>
<path d="M310 1361 c0 -32 -4 -40 -22 -45 -23 -6 -23 -7 -3 -18 11 -6 25 -17
30 -24 45 -59 1019 -73 1299 -20 37 7 71 18 75 23 3 5 15 14 25 20 19 10 18
11 -2 22 -16 9 -22 21 -22 46 l0 34 -51 -35 c-60 -40 -96 -43 -164 -13 -55 24
-74 21 -145 -23 -57 -35 -47 -36 -168 13 -31 13 -37 12 -92 -19 -68 -37 -88
-39 -123 -12 -52 41 -81 44 -143 16 -73 -34 -87 -33 -161 6 l-61 32 -54 -22
c-75 -31 -98 -28 -157 18 -28 22 -53 40 -56 40 -3 0 -5 -17 -5 -39z"/>
<path d="M1615 1233 c-163 -27 -358 -35 -718 -30 -199 4 -389 11 -422 16 -33
5 -84 12 -113 16 l-52 8 0 -58 c0 -43 -4 -61 -17 -71 -17 -12 -16 -15 14 -42
34 -32 73 -41 248 -62 143 -17 559 -23 741 -11 277 19 379 38 408 78 17 24 18
27 3 38 -11 8 -17 31 -19 71 l-3 59 -70 -12z"/>
<path d="M310 970 c0 -45 -4 -62 -15 -66 -8 -4 -15 -13 -15 -20 0 -8 7 -17 15
-20 8 -4 15 -12 15 -20 0 -16 46 -30 165 -49 288 -46 771 -46 1045 0 116 20
147 30 175 57 28 26 31 43 10 52 -11 4 -15 21 -15 67 l0 61 -27 -7 c-66 -17
-208 -35 -352 -46 -285 -21 -816 2 -951 41 -19 5 -38 10 -42 10 -5 0 -8 -27
-8 -60z"/>
<path d="M310 772 c0 -23 -6 -45 -15 -52 -21 -17 -19 -30 13 -67 33 -38 86
-57 246 -86 107 -19 157 -22 436 -22 255 0 336 3 429 18 142 23 267 61 275 85
3 9 11 25 18 34 10 14 9 20 -5 36 -10 11 -17 35 -17 56 0 35 -2 38 -22 32 -58
-16 -162 -36 -258 -48 -142 -18 -688 -18 -830 0 -106 14 -220 35 -252 47 -15
6 -18 1 -18 -33z"/>
<path d="M310 567 c0 -31 -5 -47 -15 -51 -17 -6 -20 -52 -4 -61 5 -4 14 -17
19 -30 20 -52 297 -109 589 -121 222 -9 512 16 651 57 75 22 140 52 140 64 0
7 7 18 15 25 8 7 15 23 15 35 0 12 -7 28 -15 35 -9 7 -15 29 -15 52 0 35 -2
39 -17 32 -51 -22 -214 -57 -333 -70 -104 -13 -197 -15 -405 -11 -322 6 -475
26 -607 82 -16 6 -18 1 -18 -38z"/>
<path d="M1605 358 c-298 -100 -915 -101 -1213 -2 -40 13 -75 24 -77 24 -3 0
-5 -27 -5 -59 0 -70 9 -82 84 -110 216 -81 769 -96 1098 -30 106 21 185 51
194 72 3 8 4 41 2 73 l-3 59 -80 -27z"/>
</g>
</svg>
